<mxfile host="app.diagrams.net" modified="2024-07-07T15:56:19.537Z" agent="Mozilla/5.0 (Windows NT 10.0; Win64; x64) AppleWebKit/537.36 (KHTML, like Gecko) Chrome/126.0.0.0 Safari/537.36" etag="pEE788a5Jm20MDCclRpm" version="24.6.4" type="device">
  <diagram name="Page-1" id="BUkqgPKUf5BEV1XzSzW5">
    <mxGraphModel dx="978" dy="518" grid="1" gridSize="10" guides="1" tooltips="1" connect="1" arrows="1" fold="1" page="1" pageScale="1" pageWidth="850" pageHeight="1100" math="0" shadow="0">
      <root>
        <mxCell id="0" />
        <mxCell id="1" parent="0" />
        <mxCell id="5MVRk8y--haVYS0efDP0-8" value="" style="edgeStyle=orthogonalEdgeStyle;rounded=0;orthogonalLoop=1;jettySize=auto;html=1;" edge="1" parent="1" source="5MVRk8y--haVYS0efDP0-3" target="5MVRk8y--haVYS0efDP0-7">
          <mxGeometry relative="1" as="geometry" />
        </mxCell>
        <mxCell id="5MVRk8y--haVYS0efDP0-3" value="www.ajio.com" style="rounded=1;whiteSpace=wrap;html=1;" vertex="1" parent="1">
          <mxGeometry x="160" y="90" width="120" height="60" as="geometry" />
        </mxCell>
        <mxCell id="5MVRk8y--haVYS0efDP0-10" value="" style="edgeStyle=orthogonalEdgeStyle;rounded=0;orthogonalLoop=1;jettySize=auto;html=1;" edge="1" parent="1" source="5MVRk8y--haVYS0efDP0-4" target="5MVRk8y--haVYS0efDP0-6">
          <mxGeometry relative="1" as="geometry" />
        </mxCell>
        <mxCell id="5MVRk8y--haVYS0efDP0-4" value="select niche" style="rounded=1;whiteSpace=wrap;html=1;" vertex="1" parent="1">
          <mxGeometry x="320" y="190" width="120" height="60" as="geometry" />
        </mxCell>
        <mxCell id="5MVRk8y--haVYS0efDP0-6" value="women,men,kids etc" style="rounded=1;whiteSpace=wrap;html=1;" vertex="1" parent="1">
          <mxGeometry x="470" y="190" width="120" height="60" as="geometry" />
        </mxCell>
        <mxCell id="5MVRk8y--haVYS0efDP0-9" value="" style="edgeStyle=orthogonalEdgeStyle;rounded=0;orthogonalLoop=1;jettySize=auto;html=1;" edge="1" parent="1" source="5MVRk8y--haVYS0efDP0-7" target="5MVRk8y--haVYS0efDP0-4">
          <mxGeometry relative="1" as="geometry" />
        </mxCell>
        <mxCell id="5MVRk8y--haVYS0efDP0-23" value="" style="edgeStyle=orthogonalEdgeStyle;rounded=0;orthogonalLoop=1;jettySize=auto;html=1;" edge="1" parent="1" source="5MVRk8y--haVYS0efDP0-7" target="5MVRk8y--haVYS0efDP0-12">
          <mxGeometry relative="1" as="geometry" />
        </mxCell>
        <mxCell id="5MVRk8y--haVYS0efDP0-7" value="menus" style="rounded=1;whiteSpace=wrap;html=1;" vertex="1" parent="1">
          <mxGeometry x="160" y="190" width="120" height="60" as="geometry" />
        </mxCell>
        <mxCell id="5MVRk8y--haVYS0efDP0-14" value="" style="edgeStyle=orthogonalEdgeStyle;rounded=0;orthogonalLoop=1;jettySize=auto;html=1;" edge="1" parent="1" source="5MVRk8y--haVYS0efDP0-12" target="5MVRk8y--haVYS0efDP0-13">
          <mxGeometry relative="1" as="geometry">
            <Array as="points">
              <mxPoint x="310" y="350" />
              <mxPoint x="310" y="310" />
            </Array>
          </mxGeometry>
        </mxCell>
        <mxCell id="5MVRk8y--haVYS0efDP0-22" value="" style="edgeStyle=orthogonalEdgeStyle;rounded=0;orthogonalLoop=1;jettySize=auto;html=1;" edge="1" parent="1" source="5MVRk8y--haVYS0efDP0-12" target="5MVRk8y--haVYS0efDP0-15">
          <mxGeometry relative="1" as="geometry" />
        </mxCell>
        <mxCell id="5MVRk8y--haVYS0efDP0-28" value="" style="edgeStyle=orthogonalEdgeStyle;rounded=0;orthogonalLoop=1;jettySize=auto;html=1;" edge="1" parent="1" source="5MVRk8y--haVYS0efDP0-12" target="5MVRk8y--haVYS0efDP0-27">
          <mxGeometry relative="1" as="geometry" />
        </mxCell>
        <mxCell id="5MVRk8y--haVYS0efDP0-12" value="create accout" style="rounded=1;whiteSpace=wrap;html=1;" vertex="1" parent="1">
          <mxGeometry x="160" y="320" width="120" height="60" as="geometry" />
        </mxCell>
        <mxCell id="5MVRk8y--haVYS0efDP0-19" value="" style="edgeStyle=orthogonalEdgeStyle;rounded=0;orthogonalLoop=1;jettySize=auto;html=1;" edge="1" parent="1" source="5MVRk8y--haVYS0efDP0-13" target="5MVRk8y--haVYS0efDP0-17">
          <mxGeometry relative="1" as="geometry" />
        </mxCell>
        <mxCell id="5MVRk8y--haVYS0efDP0-13" value="already a user&amp;nbsp;" style="rounded=1;whiteSpace=wrap;html=1;" vertex="1" parent="1">
          <mxGeometry x="340" y="280" width="120" height="60" as="geometry" />
        </mxCell>
        <mxCell id="5MVRk8y--haVYS0efDP0-21" value="" style="edgeStyle=orthogonalEdgeStyle;rounded=0;orthogonalLoop=1;jettySize=auto;html=1;" edge="1" parent="1" source="5MVRk8y--haVYS0efDP0-15" target="5MVRk8y--haVYS0efDP0-20">
          <mxGeometry relative="1" as="geometry" />
        </mxCell>
        <mxCell id="5MVRk8y--haVYS0efDP0-15" value="new user&amp;nbsp;" style="rounded=1;whiteSpace=wrap;html=1;" vertex="1" parent="1">
          <mxGeometry x="340" y="360" width="120" height="60" as="geometry" />
        </mxCell>
        <mxCell id="5MVRk8y--haVYS0efDP0-25" value="" style="edgeStyle=orthogonalEdgeStyle;rounded=0;orthogonalLoop=1;jettySize=auto;html=1;" edge="1" parent="1" source="5MVRk8y--haVYS0efDP0-17" target="5MVRk8y--haVYS0efDP0-24">
          <mxGeometry relative="1" as="geometry" />
        </mxCell>
        <mxCell id="5MVRk8y--haVYS0efDP0-17" value="log in and enter credentials" style="rounded=1;whiteSpace=wrap;html=1;" vertex="1" parent="1">
          <mxGeometry x="490" y="280" width="120" height="60" as="geometry" />
        </mxCell>
        <mxCell id="5MVRk8y--haVYS0efDP0-26" value="" style="edgeStyle=orthogonalEdgeStyle;rounded=0;orthogonalLoop=1;jettySize=auto;html=1;" edge="1" parent="1" source="5MVRk8y--haVYS0efDP0-20" target="5MVRk8y--haVYS0efDP0-24">
          <mxGeometry relative="1" as="geometry" />
        </mxCell>
        <mxCell id="5MVRk8y--haVYS0efDP0-20" value="sign in and give details for account creation" style="rounded=1;whiteSpace=wrap;html=1;" vertex="1" parent="1">
          <mxGeometry x="490" y="360" width="120" height="60" as="geometry" />
        </mxCell>
        <mxCell id="5MVRk8y--haVYS0efDP0-24" value="log in to the account" style="rounded=1;whiteSpace=wrap;html=1;" vertex="1" parent="1">
          <mxGeometry x="650" y="320" width="120" height="60" as="geometry" />
        </mxCell>
        <mxCell id="5MVRk8y--haVYS0efDP0-30" value="" style="edgeStyle=orthogonalEdgeStyle;rounded=0;orthogonalLoop=1;jettySize=auto;html=1;" edge="1" parent="1" source="5MVRk8y--haVYS0efDP0-27" target="5MVRk8y--haVYS0efDP0-29">
          <mxGeometry relative="1" as="geometry" />
        </mxCell>
        <mxCell id="5MVRk8y--haVYS0efDP0-27" value="search the item&amp;nbsp;" style="rounded=1;whiteSpace=wrap;html=1;" vertex="1" parent="1">
          <mxGeometry x="160" y="440" width="120" height="60" as="geometry" />
        </mxCell>
        <mxCell id="5MVRk8y--haVYS0efDP0-32" value="" style="edgeStyle=orthogonalEdgeStyle;rounded=0;orthogonalLoop=1;jettySize=auto;html=1;" edge="1" parent="1" source="5MVRk8y--haVYS0efDP0-29" target="5MVRk8y--haVYS0efDP0-31">
          <mxGeometry relative="1" as="geometry" />
        </mxCell>
        <mxCell id="5MVRk8y--haVYS0efDP0-29" value="select the item to your liking" style="rounded=1;whiteSpace=wrap;html=1;" vertex="1" parent="1">
          <mxGeometry x="160" y="520" width="120" height="60" as="geometry" />
        </mxCell>
        <mxCell id="5MVRk8y--haVYS0efDP0-34" value="" style="edgeStyle=orthogonalEdgeStyle;rounded=0;orthogonalLoop=1;jettySize=auto;html=1;" edge="1" parent="1" source="5MVRk8y--haVYS0efDP0-31" target="5MVRk8y--haVYS0efDP0-33">
          <mxGeometry relative="1" as="geometry" />
        </mxCell>
        <mxCell id="5MVRk8y--haVYS0efDP0-31" value="choose colour and size" style="rounded=1;whiteSpace=wrap;html=1;" vertex="1" parent="1">
          <mxGeometry x="305" y="520" width="120" height="60" as="geometry" />
        </mxCell>
        <mxCell id="5MVRk8y--haVYS0efDP0-36" value="" style="edgeStyle=orthogonalEdgeStyle;rounded=0;orthogonalLoop=1;jettySize=auto;html=1;" edge="1" parent="1" source="5MVRk8y--haVYS0efDP0-33" target="5MVRk8y--haVYS0efDP0-35">
          <mxGeometry relative="1" as="geometry" />
        </mxCell>
        <mxCell id="5MVRk8y--haVYS0efDP0-33" value="add item to your cart" style="rounded=1;whiteSpace=wrap;html=1;" vertex="1" parent="1">
          <mxGeometry x="460" y="520" width="120" height="60" as="geometry" />
        </mxCell>
        <mxCell id="5MVRk8y--haVYS0efDP0-39" value="" style="edgeStyle=orthogonalEdgeStyle;rounded=0;orthogonalLoop=1;jettySize=auto;html=1;" edge="1" parent="1" source="5MVRk8y--haVYS0efDP0-35" target="5MVRk8y--haVYS0efDP0-38">
          <mxGeometry relative="1" as="geometry" />
        </mxCell>
        <mxCell id="5MVRk8y--haVYS0efDP0-35" value="click continue" style="rounded=1;whiteSpace=wrap;html=1;" vertex="1" parent="1">
          <mxGeometry x="460" y="620" width="120" height="60" as="geometry" />
        </mxCell>
        <mxCell id="5MVRk8y--haVYS0efDP0-42" value="" style="edgeStyle=orthogonalEdgeStyle;rounded=0;orthogonalLoop=1;jettySize=auto;html=1;" edge="1" parent="1" source="5MVRk8y--haVYS0efDP0-38" target="5MVRk8y--haVYS0efDP0-40">
          <mxGeometry relative="1" as="geometry" />
        </mxCell>
        <mxCell id="5MVRk8y--haVYS0efDP0-38" value="give delivery addres" style="whiteSpace=wrap;html=1;rounded=1;" vertex="1" parent="1">
          <mxGeometry x="305" y="620" width="120" height="60" as="geometry" />
        </mxCell>
        <mxCell id="5MVRk8y--haVYS0efDP0-43" value="" style="edgeStyle=orthogonalEdgeStyle;rounded=0;orthogonalLoop=1;jettySize=auto;html=1;" edge="1" parent="1" source="5MVRk8y--haVYS0efDP0-40" target="5MVRk8y--haVYS0efDP0-41">
          <mxGeometry relative="1" as="geometry" />
        </mxCell>
        <mxCell id="5MVRk8y--haVYS0efDP0-40" value="select payment option" style="rounded=1;whiteSpace=wrap;html=1;" vertex="1" parent="1">
          <mxGeometry x="150" y="620" width="120" height="60" as="geometry" />
        </mxCell>
        <mxCell id="5MVRk8y--haVYS0efDP0-41" value="order placed" style="rounded=1;whiteSpace=wrap;html=1;" vertex="1" parent="1">
          <mxGeometry x="150" y="720" width="120" height="60" as="geometry" />
        </mxCell>
      </root>
    </mxGraphModel>
  </diagram>
</mxfile>
